<svg xmlns="http://www.w3.org/2000/svg" width="233.181" height="78.11" viewBox="0 0 233.181 78.11"><defs><style>.a{fill:#fff;}.a,.b{fill-rule:evenodd;}</style></defs><g transform="translate(0)"><path class="a" d="M228.8,11H24.241C12.032,11,10,15.227,10,25.281V74.919C10,84.964,14.182,89.11,24.227,89.11H228.8c10.053,0,14.382-4.151,14.382-14.2V25.281C243.181,15.227,238.851,11,228.8,11Z" transform="translate(-10 -11)"/><g transform="translate(17.823 11.934)"><path class="b" d="M130.554,138.883a35.948,35.948,0,0,1-3.248,6.065c-2.11,3.213-5.084,7.213-8.768,7.246-3.275.03-4.115-2.131-8.559-2.107s-5.371,2.145-8.646,2.115c-3.685-.034-6.5-3.646-8.613-6.858-5.9-8.982-6.517-19.522-2.878-25.125,2.586-3.982,6.665-6.313,10.5-6.313,3.905,0,6.36,2.142,9.589,2.142,3.132,0,5.042-2.145,9.556-2.145a12.743,12.743,0,0,1,9.606,5.072c-8.442,4.626-7.071,16.684,1.46,19.908" transform="translate(-87.583 -102.197)"/><path class="b" d="M185.313,71.066a10.961,10.961,0,0,0,2.434-8.119,11.841,11.841,0,0,0-7.645,4.112c-1.661,2.018-3.032,5.011-2.5,7.919a10,10,0,0,0,7.709-3.913" transform="translate(-156.832 -62.947)"/></g><path class="b" d="M460.093,183.166H448.23a5.2,5.2,0,0,0,1.723,3.943,5.837,5.837,0,0,0,3.878,1.211,12.924,12.924,0,0,0,4.8-.868l.622,2.74a14.755,14.755,0,0,1-5.97,1.091,8.63,8.63,0,0,1-6.493-2.431,8.992,8.992,0,0,1-2.366-6.533,10.251,10.251,0,0,1,2.2-6.708,7.606,7.606,0,0,1,6.226-2.851,6.615,6.615,0,0,1,5.822,2.85,9.892,9.892,0,0,1,1.574,5.683A10.407,10.407,0,0,1,460.093,183.166Zm-16.856-6.527a6.19,6.19,0,0,0-1.276-.1,3.765,3.765,0,0,0-3.235,1.571,5.879,5.879,0,0,0-1,3.511v9.127h-3.906V178.758c0-2.038-.085-3.863-.154-5.7h3.44l.147,3.676h.108a6.324,6.324,0,0,1,1.977-2.9,4.876,4.876,0,0,1,2.89-.991,6.6,6.6,0,0,1,1.012.025Zm-14.294,12.015a8.387,8.387,0,0,1-6.514,2.7,7.968,7.968,0,0,1-6.251-2.6,9.469,9.469,0,0,1-2.319-6.553,9.668,9.668,0,0,1,2.4-6.77,8.272,8.272,0,0,1,6.457-2.631,8.1,8.1,0,0,1,6.3,2.6,9.371,9.371,0,0,1,2.266,6.51A9.765,9.765,0,0,1,428.942,188.654Zm-16.26-12.38h-4.135v8.5c0,2.195.681,3.283,2.219,3.283a6.782,6.782,0,0,0,1.709-.172l.089,2.995a9,9,0,0,1-3.086.441,4.808,4.808,0,0,1-3.7-1.428c-.887-.947-1.366-2.548-1.366-4.793v-8.824h-2.527v-3.216h2.527v-3.151l4.135-1.172v4.323h4.135Zm-13.9,12.884a9.73,9.73,0,0,1-6.723,2.159,11.784,11.784,0,0,1-6.394-1.535l.918-3.294a11.038,11.038,0,0,0,5.7,1.538,5.423,5.423,0,0,0,3.482-1.006,3.293,3.293,0,0,0,1.241-2.7,3.454,3.454,0,0,0-1.021-2.517,9.7,9.7,0,0,0-3.4-1.9q-6.473-2.409-6.477-7.06a6.224,6.224,0,0,1,2.282-4.982,9.07,9.07,0,0,1,6.061-1.939,12.069,12.069,0,0,1,5.6,1.169l-1,3.223a9.778,9.778,0,0,0-4.735-1.137,4.913,4.913,0,0,0-3.273,1.022,2.963,2.963,0,0,0-.987,2.238,3.055,3.055,0,0,0,1.134,2.423,12.987,12.987,0,0,0,3.584,1.9,12.028,12.028,0,0,1,4.691,3,6.285,6.285,0,0,1,1.5,4.277A6.589,6.589,0,0,1,398.786,189.158Zm-22.842-.138a7.275,7.275,0,0,1-5.5,2.337,5.626,5.626,0,0,1-5.089-2.531v9.5h-3.905v-19.32c0-1.9-.073-3.654-.168-5.951h3.468l.229,2.987h.068a6.731,6.731,0,0,1,6.005-3.208,6.573,6.573,0,0,1,5.254,2.47,9.761,9.761,0,0,1,2.107,6.544A10.042,10.042,0,0,1,375.943,189.02Zm-19.546,0a7.252,7.252,0,0,1-5.486,2.337,5.608,5.608,0,0,1-5.082-2.531v9.5h-3.905v-19.32c0-1.9-.091-3.654-.191-5.951h3.478l.218,2.987h.069a6.734,6.734,0,0,1,6.011-3.208,6.591,6.591,0,0,1,5.257,2.47,9.8,9.8,0,0,1,2.1,6.544A10.042,10.042,0,0,1,356.4,189.02Zm-21.142,1.727-2.3-7.122h-8.019l-2.2,7.122h-4.1l7.936-24.582h4.911l7.984,24.582ZM452.55,175.5a3.9,3.9,0,0,0-3.148,1.729,5.666,5.666,0,0,0-1.172,3.179h8.236a5.342,5.342,0,0,0-.765-3.145A3.563,3.563,0,0,0,452.55,175.5Zm-123.629-5.89h-.069c-.249,1.149-.634,2.678-1.175,4.73l-2.051,6.527h6.624l-2.078-6.527C329.947,173.68,329.528,171.909,328.921,169.612Zm40.853,6.33a4.09,4.09,0,0,0-2.651.967,4.579,4.579,0,0,0-1.573,2.553,5.323,5.323,0,0,0-.192,1.21v2.961a4.752,4.752,0,0,0,1.2,3.282,3.979,3.979,0,0,0,3.094,1.331,4.05,4.05,0,0,0,3.488-1.72,7.569,7.569,0,0,0,1.25-4.544,7.333,7.333,0,0,0-1.171-4.277A4.081,4.081,0,0,0,369.773,175.942Zm52.792-.246a3.951,3.951,0,0,0-3.616,2.116,7.988,7.988,0,0,0-1.066,4.263,7.864,7.864,0,0,0,1.066,4.2,3.971,3.971,0,0,0,3.587,2.113,3.931,3.931,0,0,0,3.541-2.157,7.835,7.835,0,0,0,1.1-4.223,7.974,7.974,0,0,0-1.057-4.2A3.93,3.93,0,0,0,422.566,175.7Zm-72.344.246a4.1,4.1,0,0,0-2.65.967,4.548,4.548,0,0,0-1.56,2.553,5.317,5.317,0,0,0-.183,1.21v2.961a4.738,4.738,0,0,0,1.19,3.282,3.971,3.971,0,0,0,3.093,1.331,4.049,4.049,0,0,0,3.482-1.72,7.582,7.582,0,0,0,1.241-4.544,7.306,7.306,0,0,0-1.167-4.277A4.073,4.073,0,0,0,350.222,175.942Z" transform="translate(-247.732 -130.327)"/><g transform="translate(72.758 17.355)"><path d="M329.325,93.568,328.31,96.91h-2.222l3.78-11.793h2.747l3.832,11.793h-2.309l-1.067-3.342Zm3.377-1.627-.927-2.9c-.227-.717-.42-1.522-.6-2.2h-.035c-.175.682-.35,1.5-.56,2.2l-.91,2.9Z" transform="translate(-326.088 -84.487)"/><path d="M377.684,100.5l1.382,4.322c.245.752.42,1.435.577,2.134h.052c.158-.7.35-1.365.578-2.134l1.347-4.322H383.9l-3.254,8.521h-2.117l-3.167-8.521Z" transform="translate(-364.876 -96.595)"/><path d="M423.763,108.305l-.14-.945h-.052a3.165,3.165,0,0,1-2.519,1.137,2.529,2.529,0,0,1-2.677-2.537c0-2.152,1.907-3.237,5.057-3.219v-.14c0-.56-.227-1.487-1.732-1.487a4.512,4.512,0,0,0-2.292.63l-.42-1.4a6.134,6.134,0,0,1,3.08-.752c2.729,0,3.517,1.732,3.517,3.587v3.079a13.672,13.672,0,0,0,.122,2.047Zm-.28-4.164c-1.522-.035-2.975.3-2.975,1.592a1.13,1.13,0,0,0,1.225,1.225,1.744,1.744,0,0,0,1.68-1.172,1.551,1.551,0,0,0,.07-.472Z" transform="translate(-398.741 -95.883)"/><path d="M423.763,108.305l-.14-.945h-.052a3.165,3.165,0,0,1-2.519,1.137,2.529,2.529,0,0,1-2.677-2.537c0-2.152,1.907-3.237,5.057-3.219v-.14c0-.56-.227-1.487-1.732-1.487a4.512,4.512,0,0,0-2.292.63l-.42-1.4a6.134,6.134,0,0,1,3.08-.752c2.729,0,3.517,1.732,3.517,3.587v3.079a13.672,13.672,0,0,0,.122,2.047Zm-.28-4.164c-1.522-.035-2.975.3-2.975,1.592a1.13,1.13,0,0,0,1.225,1.225,1.744,1.744,0,0,0,1.68-1.172,1.551,1.551,0,0,0,.07-.472Z" transform="translate(-380.838 -95.883)"/><path d="M462.954,82.156h2.17V94.579h-2.17Z" transform="translate(-429.584 -82.156)"/><path d="M485.93,84.973a1.208,1.208,0,1,1-1.207-1.172A1.14,1.14,0,0,1,485.93,84.973Zm-2.292,10.9V87.353h2.17v8.521Z" transform="translate(-454.556 -83.451)"/><path d="M504.818,94.579c.035-.577.07-1.522.07-2.4V82.156h2.152V87.23h.035a3.083,3.083,0,0,1,2.729-1.365c2.082,0,3.569,1.732,3.552,4.322,0,3.062-1.942,4.584-3.867,4.584A2.932,2.932,0,0,1,506.8,93.3h-.035l-.105,1.277Zm2.222-3.517a2.383,2.383,0,0,0,.052.507,1.985,1.985,0,0,0,1.907,1.5c1.347,0,2.169-1.085,2.169-2.8,0-1.5-.717-2.729-2.152-2.729a2.015,2.015,0,0,0-1.907,1.575,2.579,2.579,0,0,0-.07.56Z" transform="translate(-457.955 -82.156)"/><path d="M553.264,82.156h2.169V94.579h-2.169Z" transform="translate(-496.094 -82.156)"/><path d="M573.917,104.649c.053,1.54,1.26,2.2,2.625,2.2a6.406,6.406,0,0,0,2.362-.385l.315,1.487a8.022,8.022,0,0,1-2.975.525,4.031,4.031,0,0,1-4.392-4.3c0-2.362,1.435-4.584,4.164-4.584,2.765,0,3.674,2.275,3.674,4.147a5.31,5.31,0,0,1-.07.91Zm3.744-1.5a1.832,1.832,0,0,0-1.767-2.082,2.106,2.106,0,0,0-1.977,2.082Z" transform="translate(-510.728 -95.883)"/><path d="M639.961,103.966a4.221,4.221,0,0,1-4.374,4.532,4.12,4.12,0,0,1-4.269-4.392,4.207,4.207,0,0,1,4.409-4.514A4.088,4.088,0,0,1,639.961,103.966Zm-6.421.087c0,1.645.8,2.887,2.117,2.887,1.225,0,2.082-1.207,2.082-2.922,0-1.33-.595-2.852-2.065-2.852C634.152,101.167,633.54,102.637,633.54,104.054Z" transform="translate(-557.543 -95.883)"/><path d="M680,102.321c0-.98-.017-1.8-.07-2.537h1.89l.1,1.277h.052a3.072,3.072,0,0,1,2.712-1.47c1.487,0,3.027.962,3.027,3.657v5.056h-2.152v-4.812c0-1.225-.455-2.152-1.627-2.152a1.806,1.806,0,0,0-1.68,1.26,2.193,2.193,0,0,0-.088.7v5H680Z" transform="translate(-595.812 -95.883)"/><path d="M743.623,89.065V91.5h2.047v1.61h-2.047v3.762c0,1.032.28,1.575,1.1,1.575a3.188,3.188,0,0,0,.84-.1l.035,1.645a4.732,4.732,0,0,1-1.557.21,2.491,2.491,0,0,1-1.854-.7,3.4,3.4,0,0,1-.665-2.38V93.107H740.3V91.5h1.225V89.572Z" transform="translate(-643.34 -87.595)"/><path d="M773.2,82.156h2.17V87.23h.035a2.888,2.888,0,0,1,1.067-.98,2.918,2.918,0,0,1,1.47-.385c1.452,0,2.974.962,2.974,3.692v5.021h-2.152V89.8c0-1.242-.455-2.17-1.645-2.17a1.755,1.755,0,0,0-1.662,1.207,1.811,1.811,0,0,0-.088.647v5.091H773.2Z" transform="translate(-669.24 -82.156)"/><path d="M819.762,104.649c.052,1.54,1.26,2.2,2.625,2.2a6.407,6.407,0,0,0,2.362-.385l.315,1.487a8.019,8.019,0,0,1-2.974.525,4.031,4.031,0,0,1-4.392-4.3c0-2.362,1.435-4.584,4.164-4.584,2.764,0,3.674,2.275,3.674,4.147a5.308,5.308,0,0,1-.07.91Zm3.744-1.5a1.832,1.832,0,0,0-1.767-2.082,2.105,2.105,0,0,0-1.977,2.082Z" transform="translate(-704.272 -95.883)"/></g></g></svg>