<svg xmlns="http://www.w3.org/2000/svg" width="233.181" height="78.11" viewBox="0 0 233.181 78.11"><defs><style>.a{fill:#fff;fill-rule:evenodd;}.b{fill:#00d6ff;}.c{fill:#00f076;}.d{fill:#ff3a44;}.e{fill:#ffd000;}</style></defs><path class="a" d="M228.8,11H24.241C12.032,11,10,15.227,10,25.281V74.919C10,84.964,14.182,89.11,24.227,89.11H228.8c10.053,0,14.382-4.151,14.382-14.2V25.281C243.181,15.227,238.852,11,228.8,11Z" transform="translate(-10 -11)"/><g transform="translate(19.068 15.439)"><path class="b" d="M93.931,78.545a1.374,1.374,0,0,0-.931,1.3V125.4a1.374,1.374,0,0,0,.918,1.3l24.2-24.086Z" transform="translate(-93 -78.466)"/><path class="c" d="M128.057,95.569,98.194,78.387a1.362,1.362,0,0,0-1.142-.106l24.187,24.073Z" transform="translate(-96.121 -78.203)"/><path class="d" d="M98.149,207.317l29.875-17.188-6.829-6.8-24.2,24.086A1.362,1.362,0,0,0,98.149,207.317Z" transform="translate(-96.076 -159.18)"/><path class="e" d="M209.163,167.377l9.715-5.589a1.383,1.383,0,0,0,0-2.4l-9.726-5.6-6.818,6.786Z" transform="translate(-177.216 -136.429)"/></g><g transform="translate(66.114 36.367)"><path d="M346.232,177.733a7.549,7.549,0,0,0-7.716,7.716,7.659,7.659,0,0,0,7.716,7.716,7.55,7.55,0,0,0,7.716-7.716A7.445,7.445,0,0,0,346.232,177.733Zm0,12.2a4.68,4.68,0,0,1,0-9.331,4.347,4.347,0,0,1,4.307,4.665A4.454,4.454,0,0,1,346.232,189.935Zm-16.688-12.2a7.549,7.549,0,0,0-7.716,7.716,7.659,7.659,0,0,0,7.716,7.716,7.549,7.549,0,0,0,7.716-7.716A7.444,7.444,0,0,0,329.544,177.733Zm0,12.2a4.68,4.68,0,0,1,0-9.331,4.347,4.347,0,0,1,4.307,4.665A4.454,4.454,0,0,1,329.544,189.935Zm-19.918-9.869v3.23h7.716a6.784,6.784,0,0,1-1.794,4.127,7.942,7.942,0,0,1-5.922,2.333,8.354,8.354,0,0,1-8.434-8.613,8.464,8.464,0,0,1,8.434-8.613,8.9,8.9,0,0,1,5.922,2.333l2.333-2.333a11.5,11.5,0,0,0-8.075-3.23,11.845,11.845,0,1,0,0,23.686,10.327,10.327,0,0,0,8.254-3.41,10.8,10.8,0,0,0,2.871-7.536,6.72,6.72,0,0,0-.18-1.974Zm81.467,2.512c-.718-1.794-2.512-4.845-6.46-4.845s-7.178,3.05-7.178,7.716a7.509,7.509,0,0,0,7.536,7.716,7.361,7.361,0,0,0,6.28-3.409l-2.512-1.794a4.374,4.374,0,0,1-3.768,2.153,3.893,3.893,0,0,1-3.768-2.333l10.228-4.307-.359-.9Zm-10.408,2.512a4.359,4.359,0,0,1,3.948-4.486,3.174,3.174,0,0,1,2.871,1.615l-6.819,2.871Zm-8.434,7.357h3.409v-22.43h-3.409Zm-5.383-13.1a5.909,5.909,0,0,0-4.127-1.794,7.71,7.71,0,0,0-7.357,7.716,7.43,7.43,0,0,0,7.357,7.537,5.153,5.153,0,0,0,3.948-1.794h.179v1.077c0,2.871-1.615,4.486-4.127,4.486a3.986,3.986,0,0,1-3.768-2.692l-2.871,1.256a7.4,7.4,0,0,0,6.819,4.486c3.948,0,7.178-2.333,7.178-7.9V178.092h-3.23v1.256Zm-3.948,10.587a4.68,4.68,0,0,1,0-9.331c2.333,0,4.127,1.974,4.127,4.665S365.253,189.935,362.92,189.935ZM406.7,170.017h-8.075v22.43h3.41v-8.434H406.7a7.007,7.007,0,1,0,0-14Zm.179,10.767h-4.845v-7.716h4.845a3.941,3.941,0,0,1,3.948,3.768,4.107,4.107,0,0,1-3.948,3.948Zm20.636-3.23c-2.512,0-5.025,1.077-5.922,3.409l3.05,1.256A3.17,3.17,0,0,1,427.7,180.6a3.372,3.372,0,0,1,3.589,2.871v.179a7.118,7.118,0,0,0-3.409-.9c-3.23,0-6.46,1.794-6.46,5.024,0,3.051,2.692,5.025,5.563,5.025a5.05,5.05,0,0,0,4.307-2.153h.179v1.794h3.23v-8.613c-.359-3.948-3.409-6.28-7.178-6.28Zm-.359,12.381c-1.077,0-2.691-.538-2.691-1.974,0-1.794,1.974-2.333,3.589-2.333a6.936,6.936,0,0,1,3.05.718A4.179,4.179,0,0,1,427.161,189.935ZM446,178.092l-3.768,9.69h-.179l-3.948-9.69h-3.589l5.922,13.638-3.41,7.537h3.41l9.151-21.174Zm-30.146,14.355h3.41v-22.43h-3.41Z" transform="translate(-297.783 -169.299)"/></g><g transform="translate(66.399 18.361)"><path d="M305,96.324h5.591a3.733,3.733,0,0,1,.08.462,4.656,4.656,0,0,1,.032.542,6.323,6.323,0,0,1-.334,2.071,4.794,4.794,0,0,1-1.052,1.736,5.271,5.271,0,0,1-1.832,1.258,6.278,6.278,0,0,1-2.437.446,6.17,6.17,0,0,1-2.341-.446,5.826,5.826,0,0,1-1.912-1.242,5.965,5.965,0,0,1-1.29-1.888,6.172,6.172,0,0,1,0-4.763,5.97,5.97,0,0,1,1.29-1.887A5.834,5.834,0,0,1,302.7,91.37a6.515,6.515,0,0,1,4.818.032,5.552,5.552,0,0,1,1.871,1.322l-1.481,1.45a4.049,4.049,0,0,0-4.364-.932,3.716,3.716,0,0,0-1.227.788,3.765,3.765,0,0,0-.836,1.234,4.363,4.363,0,0,0,0,3.234,3.7,3.7,0,0,0,.844,1.234,3.8,3.8,0,0,0,1.234.788,4.383,4.383,0,0,0,3.034.016,3.6,3.6,0,0,0,1.075-.677,2.579,2.579,0,0,0,.549-.725,4.119,4.119,0,0,0,.359-.98H305Z" transform="translate(-299.024 -90.924)"/><path d="M359.761,94.072v2.644h4.571v2.039h-4.571V101.4h5.081v2.039h-7.231v-11.4h7.231v2.039Z" transform="translate(-344.151 -91.778)"/><path d="M397.542,103.438V94.072h-3.186V92.033h8.522v2.039h-3.186v9.366Z" transform="translate(-372.455 -91.778)"/><path d="M453.358,92.033h2.15v11.4h-2.15Z" transform="translate(-417.902 -91.778)"/><path d="M472.559,103.438V94.072h-3.186V92.033h8.522v2.039h-3.186v9.366Z" transform="translate(-430.238 -91.778)"/><path d="M530.519,102.838a6,6,0,0,1-2.365-.462,5.763,5.763,0,0,1-3.138-3.162,6.225,6.225,0,0,1,0-4.667,5.761,5.761,0,0,1,3.138-3.162,6.286,6.286,0,0,1,4.731,0,5.763,5.763,0,0,1,3.138,3.162,6.224,6.224,0,0,1,0,4.667,5.765,5.765,0,0,1-3.138,3.162A6,6,0,0,1,530.519,102.838Zm0-2.039a3.857,3.857,0,0,0,1.489-.287,3.749,3.749,0,0,0,1.211-.8,3.628,3.628,0,0,0,.812-1.235,4.5,4.5,0,0,0,0-3.2,3.634,3.634,0,0,0-.812-1.234,3.753,3.753,0,0,0-1.211-.8,4.011,4.011,0,0,0-2.979,0,3.746,3.746,0,0,0-1.211.8,3.624,3.624,0,0,0-.812,1.234,4.494,4.494,0,0,0,0,3.2,3.618,3.618,0,0,0,.812,1.235,3.742,3.742,0,0,0,1.211.8A3.856,3.856,0,0,0,530.519,100.8Z" transform="translate(-472.748 -90.924)"/><path d="M583.98,92.033h2.5l4.587,7.646h.128l-.128-2.2V92.033H593.2v11.4H590.94L586.1,95.362h-.128l.128,2.2v5.878H583.98Z" transform="translate(-518.516 -91.778)"/></g></svg>