<svg xmlns="http://www.w3.org/2000/svg" width="170.187" height="45" viewBox="0 0 170.187 45"><defs><style>.a{fill:#fff;}</style></defs><path class="a" d="M12.435-119.4,6.2-163.312h6.723l3.633,28.464L21.11-163.2h5.476l4.663,28.355,3.578-28.464h6.614L35.314-119.4H28.808l-4.88-29.44L19.1-119.4Zm45.651.6a13.86,13.86,0,0,1-7.428-1.735,9.589,9.589,0,0,1-3.958-4.988,22.373,22.373,0,0,1-1.193-7.7v-16.428a21.678,21.678,0,0,1,1.193-7.617,9.342,9.342,0,0,1,3.958-4.852,14.219,14.219,0,0,1,7.428-1.681,14.314,14.314,0,0,1,7.509,1.681,9.516,9.516,0,0,1,3.958,4.852,21.241,21.241,0,0,1,1.22,7.617v16.482a21.518,21.518,0,0,1-1.22,7.617,9.918,9.918,0,0,1-3.958,4.988A13.781,13.781,0,0,1,58.086-118.8Zm0-5.91a4.276,4.276,0,0,0,2.955-.867,4.366,4.366,0,0,0,1.274-2.386,15.787,15.787,0,0,0,.325-3.307v-20.223a15.3,15.3,0,0,0-.325-3.307,4.189,4.189,0,0,0-1.274-2.3,4.37,4.37,0,0,0-2.955-.84,4.294,4.294,0,0,0-2.873.84,4.113,4.113,0,0,0-1.3,2.3,15.3,15.3,0,0,0-.325,3.307v20.223a17.175,17.175,0,0,0,.3,3.307,4.149,4.149,0,0,0,1.274,2.386A4.292,4.292,0,0,0,58.086-124.71Zm18.6,5.313v-43.916h8.024v38.386H95.333v5.53Zm34.211.6a13.86,13.86,0,0,1-7.428-1.735,9.589,9.589,0,0,1-3.958-4.988,22.373,22.373,0,0,1-1.193-7.7v-16.428a21.678,21.678,0,0,1,1.193-7.617,9.342,9.342,0,0,1,3.958-4.852,14.219,14.219,0,0,1,7.428-1.681,14.314,14.314,0,0,1,7.509,1.681,9.516,9.516,0,0,1,3.958,4.852,21.241,21.241,0,0,1,1.22,7.617v16.482a21.518,21.518,0,0,1-1.22,7.617,9.918,9.918,0,0,1-3.958,4.988A13.781,13.781,0,0,1,110.893-118.8Zm0-5.91a4.276,4.276,0,0,0,2.955-.867,4.366,4.366,0,0,0,1.274-2.386,15.787,15.787,0,0,0,.325-3.307v-20.223a15.3,15.3,0,0,0-.325-3.307,4.188,4.188,0,0,0-1.274-2.3,4.371,4.371,0,0,0-2.955-.84,4.294,4.294,0,0,0-2.873.84,4.113,4.113,0,0,0-1.3,2.3,15.3,15.3,0,0,0-.325,3.307v20.223a17.174,17.174,0,0,0,.3,3.307,4.149,4.149,0,0,0,1.274,2.386A4.292,4.292,0,0,0,110.893-124.71Zm18.6,5.313v-43.916h8.024v38.386H148.14v5.53Zm34.211.6a13.86,13.86,0,0,1-7.428-1.735,9.589,9.589,0,0,1-3.958-4.988,22.373,22.373,0,0,1-1.193-7.7v-16.428a21.678,21.678,0,0,1,1.193-7.617,9.342,9.342,0,0,1,3.958-4.852A14.219,14.219,0,0,1,163.7-163.8a14.314,14.314,0,0,1,7.509,1.681,9.516,9.516,0,0,1,3.958,4.852,21.241,21.241,0,0,1,1.22,7.617v16.482a21.518,21.518,0,0,1-1.22,7.617,9.917,9.917,0,0,1-3.958,4.988A13.781,13.781,0,0,1,163.7-118.8Zm0-5.91a4.276,4.276,0,0,0,2.955-.867,4.366,4.366,0,0,0,1.274-2.386,15.788,15.788,0,0,0,.325-3.307v-20.223a15.305,15.305,0,0,0-.325-3.307,4.189,4.189,0,0,0-1.274-2.3,4.37,4.37,0,0,0-2.955-.84,4.294,4.294,0,0,0-2.873.84,4.112,4.112,0,0,0-1.3,2.3,15.3,15.3,0,0,0-.325,3.307v20.223a17.176,17.176,0,0,0,.3,3.307,4.149,4.149,0,0,0,1.274,2.386A4.292,4.292,0,0,0,163.7-124.71Z" transform="translate(-6.2 163.8)"/></svg>